<mxfile host="app.diagrams.net" modified="2024-03-13T14:35:54.848Z" agent="Mozilla/5.0 (Windows NT 10.0; Win64; x64) AppleWebKit/537.36 (KHTML, like Gecko) Chrome/122.0.0.0 Safari/537.36 Edg/122.0.0.0" etag="fgUVnyBuc1ELJS29EmQs" version="24.0.4" type="github">
  <diagram name="Página-1" id="FejWaUxKJO4Tpg3Yl1KT">
    <mxGraphModel dx="2012" dy="1380" grid="1" gridSize="10" guides="1" tooltips="1" connect="1" arrows="1" fold="1" page="1" pageScale="1" pageWidth="827" pageHeight="1169" math="0" shadow="0">
      <root>
        <mxCell id="0" />
        <mxCell id="1" parent="0" />
        <mxCell id="zYfPLpG0swG1dU-uLJUw-16" value="Sistema de Pagamento" style="swimlane;html=1;childLayout=stackLayout;resizeParent=1;resizeParentMax=0;horizontal=0;startSize=20;horizontalStack=0;labelBackgroundColor=none;fillColor=#6d8764;strokeColor=#3A5431;fontColor=#ffffff;align=center;fontStyle=1;verticalAlign=middle;fontSize=12;" parent="1" vertex="1">
          <mxGeometry x="54" y="380" width="2146" height="370" as="geometry" />
        </mxCell>
        <mxCell id="zYfPLpG0swG1dU-uLJUw-37" value="Cliente" style="swimlane;html=1;childLayout=stackLayout;resizeParent=1;resizeParentMax=0;horizontal=0;startSize=20;horizontalStack=0;labelBackgroundColor=none;fillColor=#f8cecc;strokeColor=#b85450;align=center;fontStyle=1;verticalAlign=middle;fontSize=12;" parent="1" vertex="1">
          <mxGeometry x="50" y="90" width="2150" height="233" as="geometry" />
        </mxCell>
        <mxCell id="zYfPLpG0swG1dU-uLJUw-38" value="&amp;nbsp;&lt;div style=&quot;font-size: 12px;&quot;&gt;&lt;br style=&quot;font-size: 12px;&quot;&gt;&lt;/div&gt;" style="swimlane;html=1;startSize=20;horizontal=0;labelBackgroundColor=none;fillColor=#f8cecc;strokeColor=#b85450;align=center;fontStyle=1;verticalAlign=middle;fontSize=12;" parent="zYfPLpG0swG1dU-uLJUw-37" vertex="1">
          <mxGeometry x="20" width="2130" height="233" as="geometry" />
        </mxCell>
        <mxCell id="zYfPLpG0swG1dU-uLJUw-87" value="" style="edgeStyle=orthogonalEdgeStyle;rounded=0;orthogonalLoop=1;jettySize=auto;html=1;align=center;fontStyle=1;verticalAlign=middle;fontSize=12;" parent="zYfPLpG0swG1dU-uLJUw-38" target="zYfPLpG0swG1dU-uLJUw-86" edge="1">
          <mxGeometry relative="1" as="geometry">
            <mxPoint x="76" y="116.5" as="sourcePoint" />
          </mxGeometry>
        </mxCell>
        <mxCell id="zYfPLpG0swG1dU-uLJUw-39" value="" style="verticalLabelPosition=bottom;verticalAlign=middle;html=1;shape=mxgraph.flowchart.on-page_reference;fillColor=#008a00;strokeColor=#005700;labelBackgroundColor=none;fontColor=#ffffff;align=center;fontStyle=1;fontSize=12;" parent="zYfPLpG0swG1dU-uLJUw-38" vertex="1">
          <mxGeometry x="40" y="101.5" width="30" height="30" as="geometry" />
        </mxCell>
        <mxCell id="zYfPLpG0swG1dU-uLJUw-46" value="" style="ellipse;whiteSpace=wrap;html=1;fillColor=#d0635f;strokeColor=#C73500;fontColor=#000000;rounded=1;labelBackgroundColor=none;align=center;fontStyle=1;verticalAlign=middle;fontSize=12;" parent="zYfPLpG0swG1dU-uLJUw-38" vertex="1">
          <mxGeometry x="2070" y="86.5" width="34" height="35" as="geometry" />
        </mxCell>
        <mxCell id="zYfPLpG0swG1dU-uLJUw-102" value="" style="edgeStyle=orthogonalEdgeStyle;rounded=0;orthogonalLoop=1;jettySize=auto;html=1;align=center;fontStyle=1;verticalAlign=middle;fontSize=12;" parent="zYfPLpG0swG1dU-uLJUw-38" source="zYfPLpG0swG1dU-uLJUw-86" target="zYfPLpG0swG1dU-uLJUw-101" edge="1">
          <mxGeometry relative="1" as="geometry" />
        </mxCell>
        <mxCell id="K5AAOl8hfwGV49l_5y5c-6" style="edgeStyle=orthogonalEdgeStyle;rounded=0;orthogonalLoop=1;jettySize=auto;html=1;dashed=1;dashPattern=8 8;align=center;fontStyle=1;verticalAlign=middle;fontSize=12;" edge="1" parent="zYfPLpG0swG1dU-uLJUw-38" source="zYfPLpG0swG1dU-uLJUw-86">
          <mxGeometry relative="1" as="geometry">
            <mxPoint x="406" y="455.0000000000002" as="targetPoint" />
            <Array as="points">
              <mxPoint x="322" y="265" />
              <mxPoint x="407" y="265" />
              <mxPoint x="407" y="455" />
            </Array>
          </mxGeometry>
        </mxCell>
        <mxCell id="zYfPLpG0swG1dU-uLJUw-86" value="&lt;div style=&quot;font-size: 12px;&quot;&gt;Realizar&lt;/div&gt;Pagamento" style="rounded=1;whiteSpace=wrap;html=1;verticalAlign=middle;fillColor=#008a00;strokeColor=#005700;fontColor=#ffffff;labelBackgroundColor=none;align=center;fontStyle=1;fontSize=12;" parent="zYfPLpG0swG1dU-uLJUw-38" vertex="1">
          <mxGeometry x="262" y="86.5" width="120" height="60" as="geometry" />
        </mxCell>
        <mxCell id="K5AAOl8hfwGV49l_5y5c-30" value="" style="edgeStyle=orthogonalEdgeStyle;rounded=0;orthogonalLoop=1;jettySize=auto;html=1;entryX=0;entryY=0.5;entryDx=0;entryDy=0;align=center;fontStyle=1;verticalAlign=middle;fontSize=12;" edge="1" parent="zYfPLpG0swG1dU-uLJUw-38" source="zYfPLpG0swG1dU-uLJUw-101" target="K5AAOl8hfwGV49l_5y5c-31">
          <mxGeometry relative="1" as="geometry">
            <mxPoint x="1070.000023375409" y="116.52941176470586" as="targetPoint" />
          </mxGeometry>
        </mxCell>
        <mxCell id="zYfPLpG0swG1dU-uLJUw-101" value="Realização do Serviço" style="rounded=1;whiteSpace=wrap;html=1;verticalAlign=middle;fillColor=#008a00;strokeColor=#005700;fontColor=#ffffff;labelBackgroundColor=none;align=center;fontStyle=1;fontSize=12;" parent="zYfPLpG0swG1dU-uLJUw-38" vertex="1">
          <mxGeometry x="806" y="86.5" width="120" height="60" as="geometry" />
        </mxCell>
        <mxCell id="K5AAOl8hfwGV49l_5y5c-36" value="" style="edgeStyle=orthogonalEdgeStyle;rounded=0;orthogonalLoop=1;jettySize=auto;html=1;align=center;fontStyle=1;verticalAlign=middle;fontSize=12;" edge="1" parent="zYfPLpG0swG1dU-uLJUw-38" source="K5AAOl8hfwGV49l_5y5c-31" target="K5AAOl8hfwGV49l_5y5c-35">
          <mxGeometry relative="1" as="geometry" />
        </mxCell>
        <mxCell id="K5AAOl8hfwGV49l_5y5c-31" value="" style="ellipse;shape=doubleEllipse;whiteSpace=wrap;html=1;aspect=fixed;fillColor=#e3c800;fontColor=#000000;strokeColor=#B09500;align=center;fontStyle=1;verticalAlign=middle;fontSize=12;" vertex="1" parent="zYfPLpG0swG1dU-uLJUw-38">
          <mxGeometry x="1149" y="98.5" width="36" height="36" as="geometry" />
        </mxCell>
        <mxCell id="K5AAOl8hfwGV49l_5y5c-32" value="&amp;nbsp;Aguardo pela disponibilidade da avaliação&amp;nbsp;" style="text;html=1;align=center;verticalAlign=middle;whiteSpace=wrap;rounded=0;fontStyle=1;fontSize=12;" vertex="1" parent="zYfPLpG0swG1dU-uLJUw-38">
          <mxGeometry x="1105" y="165" width="124" height="30" as="geometry" />
        </mxCell>
        <mxCell id="K5AAOl8hfwGV49l_5y5c-35" value="Avaliação&amp;nbsp;" style="rounded=1;whiteSpace=wrap;html=1;fillColor=#e3c800;strokeColor=#B09500;fontColor=#000000;align=center;fontStyle=1;verticalAlign=middle;fontSize=12;" vertex="1" parent="zYfPLpG0swG1dU-uLJUw-38">
          <mxGeometry x="1300" y="86.5" width="120" height="60" as="geometry" />
        </mxCell>
        <mxCell id="K5AAOl8hfwGV49l_5y5c-14" style="edgeStyle=orthogonalEdgeStyle;rounded=0;orthogonalLoop=1;jettySize=auto;html=1;dashed=1;dashPattern=8 8;align=center;fontStyle=1;verticalAlign=middle;fontSize=12;" edge="1" parent="zYfPLpG0swG1dU-uLJUw-38" target="zYfPLpG0swG1dU-uLJUw-101">
          <mxGeometry relative="1" as="geometry">
            <mxPoint x="896" y="790" as="sourcePoint" />
            <mxPoint x="904.76" y="146.54999999999993" as="targetPoint" />
            <Array as="points">
              <mxPoint x="896" y="800" />
              <mxPoint x="896" y="800" />
            </Array>
          </mxGeometry>
        </mxCell>
        <mxCell id="K5AAOl8hfwGV49l_5y5c-45" style="edgeStyle=orthogonalEdgeStyle;rounded=0;orthogonalLoop=1;jettySize=auto;html=1;entryX=-0.125;entryY=0.819;entryDx=0;entryDy=0;entryPerimeter=0;align=center;fontStyle=1;verticalAlign=middle;fontSize=12;" edge="1" parent="zYfPLpG0swG1dU-uLJUw-38" source="K5AAOl8hfwGV49l_5y5c-35" target="zYfPLpG0swG1dU-uLJUw-46">
          <mxGeometry relative="1" as="geometry" />
        </mxCell>
        <mxCell id="zYfPLpG0swG1dU-uLJUw-62" value="Prestador de serviço" style="swimlane;html=1;childLayout=stackLayout;resizeParent=1;resizeParentMax=0;horizontal=0;startSize=20;horizontalStack=0;labelBackgroundColor=none;fillColor=#f8cecc;strokeColor=#b85450;align=center;fontStyle=1;verticalAlign=middle;fontSize=12;" parent="1" vertex="1">
          <mxGeometry x="54" y="810" width="2150" height="220" as="geometry" />
        </mxCell>
        <mxCell id="zYfPLpG0swG1dU-uLJUw-63" value="&amp;nbsp;&lt;div style=&quot;font-size: 12px;&quot;&gt;&lt;br style=&quot;font-size: 12px;&quot;&gt;&lt;/div&gt;" style="swimlane;html=1;startSize=20;horizontal=0;labelBackgroundColor=none;fillColor=#f8cecc;strokeColor=#b85450;align=center;fontStyle=1;verticalAlign=middle;fontSize=12;" parent="zYfPLpG0swG1dU-uLJUw-62" vertex="1">
          <mxGeometry x="20" width="2130" height="220" as="geometry" />
        </mxCell>
        <mxCell id="zYfPLpG0swG1dU-uLJUw-83" value="" style="edgeStyle=orthogonalEdgeStyle;rounded=0;orthogonalLoop=1;jettySize=auto;html=1;align=center;fontStyle=1;verticalAlign=middle;fontSize=12;" parent="zYfPLpG0swG1dU-uLJUw-63" source="K5AAOl8hfwGV49l_5y5c-7" target="zYfPLpG0swG1dU-uLJUw-82" edge="1">
          <mxGeometry relative="1" as="geometry" />
        </mxCell>
        <mxCell id="zYfPLpG0swG1dU-uLJUw-64" value="" style="verticalLabelPosition=bottom;verticalAlign=middle;html=1;shape=mxgraph.flowchart.on-page_reference;fillColor=#008a00;strokeColor=#005700;labelBackgroundColor=none;fontColor=#ffffff;align=center;fontStyle=1;fontSize=12;" parent="zYfPLpG0swG1dU-uLJUw-63" vertex="1">
          <mxGeometry x="38.5" y="95" width="30" height="30" as="geometry" />
        </mxCell>
        <mxCell id="zYfPLpG0swG1dU-uLJUw-67" value="" style="ellipse;whiteSpace=wrap;html=1;fillColor=#d0635f;strokeColor=#C73500;fontColor=#000000;rounded=1;labelBackgroundColor=none;align=center;fontStyle=1;verticalAlign=middle;fontSize=12;" parent="zYfPLpG0swG1dU-uLJUw-63" vertex="1">
          <mxGeometry x="2060" y="95" width="34" height="35" as="geometry" />
        </mxCell>
        <mxCell id="zYfPLpG0swG1dU-uLJUw-100" value="" style="edgeStyle=orthogonalEdgeStyle;rounded=0;orthogonalLoop=1;jettySize=auto;html=1;align=center;fontStyle=1;verticalAlign=middle;fontSize=12;" parent="zYfPLpG0swG1dU-uLJUw-63" source="zYfPLpG0swG1dU-uLJUw-82" target="zYfPLpG0swG1dU-uLJUw-99" edge="1">
          <mxGeometry relative="1" as="geometry" />
        </mxCell>
        <mxCell id="zYfPLpG0swG1dU-uLJUw-82" value="Autorização&amp;nbsp;&lt;div style=&quot;font-size: 12px;&quot;&gt;do&amp;nbsp;&lt;/div&gt;&lt;div style=&quot;font-size: 12px;&quot;&gt;Serviço&lt;/div&gt;" style="rounded=1;whiteSpace=wrap;html=1;verticalAlign=middle;fillColor=#008a00;strokeColor=#005700;fontColor=#ffffff;labelBackgroundColor=none;align=center;fontStyle=1;fontSize=12;" parent="zYfPLpG0swG1dU-uLJUw-63" vertex="1">
          <mxGeometry x="480" y="80" width="120" height="60" as="geometry" />
        </mxCell>
        <mxCell id="K5AAOl8hfwGV49l_5y5c-19" value="" style="edgeStyle=orthogonalEdgeStyle;rounded=0;orthogonalLoop=1;jettySize=auto;html=1;entryX=0;entryY=0.5;entryDx=0;entryDy=0;align=center;fontStyle=1;verticalAlign=middle;fontSize=12;" edge="1" parent="zYfPLpG0swG1dU-uLJUw-63" source="zYfPLpG0swG1dU-uLJUw-99" target="K5AAOl8hfwGV49l_5y5c-21">
          <mxGeometry relative="1" as="geometry">
            <mxPoint x="1100" y="110" as="targetPoint" />
          </mxGeometry>
        </mxCell>
        <mxCell id="zYfPLpG0swG1dU-uLJUw-99" value="Realização do Serviço" style="whiteSpace=wrap;html=1;verticalAlign=middle;fillColor=#008a00;strokeColor=#005700;fontColor=#ffffff;rounded=1;labelBackgroundColor=none;align=center;fontStyle=1;fontSize=12;" parent="zYfPLpG0swG1dU-uLJUw-63" vertex="1">
          <mxGeometry x="800" y="80" width="120" height="60" as="geometry" />
        </mxCell>
        <mxCell id="K5AAOl8hfwGV49l_5y5c-10" value="" style="edgeStyle=orthogonalEdgeStyle;rounded=0;orthogonalLoop=1;jettySize=auto;html=1;align=center;fontStyle=1;verticalAlign=middle;fontSize=12;" edge="1" parent="zYfPLpG0swG1dU-uLJUw-63" source="zYfPLpG0swG1dU-uLJUw-64" target="K5AAOl8hfwGV49l_5y5c-7">
          <mxGeometry relative="1" as="geometry">
            <mxPoint x="149" y="860" as="sourcePoint" />
            <mxPoint x="560" y="860" as="targetPoint" />
          </mxGeometry>
        </mxCell>
        <mxCell id="K5AAOl8hfwGV49l_5y5c-7" value="" style="ellipse;shape=doubleEllipse;whiteSpace=wrap;html=1;aspect=fixed;fillColor=#e3c800;fontColor=#000000;strokeColor=#B09500;align=center;fontStyle=1;verticalAlign=middle;fontSize=12;" vertex="1" parent="zYfPLpG0swG1dU-uLJUw-63">
          <mxGeometry x="256" y="92" width="36" height="36" as="geometry" />
        </mxCell>
        <mxCell id="K5AAOl8hfwGV49l_5y5c-12" value="Aguardo na confirmação do pagamento pelo Sistema" style="text;html=1;align=center;verticalAlign=middle;whiteSpace=wrap;rounded=0;fontStyle=1;fontSize=12;" vertex="1" parent="zYfPLpG0swG1dU-uLJUw-63">
          <mxGeometry x="216" y="150" width="116" height="30" as="geometry" />
        </mxCell>
        <mxCell id="K5AAOl8hfwGV49l_5y5c-25" value="" style="edgeStyle=orthogonalEdgeStyle;rounded=0;orthogonalLoop=1;jettySize=auto;html=1;align=center;fontStyle=1;verticalAlign=middle;fontSize=12;" edge="1" parent="zYfPLpG0swG1dU-uLJUw-63" source="K5AAOl8hfwGV49l_5y5c-21" target="K5AAOl8hfwGV49l_5y5c-24">
          <mxGeometry relative="1" as="geometry" />
        </mxCell>
        <mxCell id="K5AAOl8hfwGV49l_5y5c-21" value="" style="ellipse;shape=doubleEllipse;whiteSpace=wrap;html=1;aspect=fixed;fillColor=#e3c800;fontColor=#000000;strokeColor=#B09500;align=center;fontStyle=1;verticalAlign=middle;fontSize=12;" vertex="1" parent="zYfPLpG0swG1dU-uLJUw-63">
          <mxGeometry x="1300" y="92" width="36" height="36" as="geometry" />
        </mxCell>
        <mxCell id="K5AAOl8hfwGV49l_5y5c-22" value="Aguardo na realização da avaliação do cliente" style="text;html=1;align=center;verticalAlign=middle;whiteSpace=wrap;rounded=0;fontStyle=1;fontSize=12;" vertex="1" parent="zYfPLpG0swG1dU-uLJUw-63">
          <mxGeometry x="1256" y="140" width="124" height="30" as="geometry" />
        </mxCell>
        <mxCell id="K5AAOl8hfwGV49l_5y5c-26" style="edgeStyle=orthogonalEdgeStyle;rounded=0;orthogonalLoop=1;jettySize=auto;html=1;align=center;fontStyle=1;verticalAlign=middle;fontSize=12;" edge="1" parent="zYfPLpG0swG1dU-uLJUw-63" source="K5AAOl8hfwGV49l_5y5c-24">
          <mxGeometry relative="1" as="geometry">
            <mxPoint x="2060" y="110" as="targetPoint" />
          </mxGeometry>
        </mxCell>
        <mxCell id="K5AAOl8hfwGV49l_5y5c-24" value="Confirmação de Pagamento" style="rounded=1;whiteSpace=wrap;html=1;fillColor=#97D077;strokeColor=#B09500;fontColor=#000000;align=center;fontStyle=1;verticalAlign=middle;fontSize=12;" vertex="1" parent="zYfPLpG0swG1dU-uLJUw-63">
          <mxGeometry x="1870" y="80" width="120" height="60" as="geometry" />
        </mxCell>
        <mxCell id="K5AAOl8hfwGV49l_5y5c-2" style="edgeStyle=orthogonalEdgeStyle;rounded=0;orthogonalLoop=1;jettySize=auto;html=1;dashed=1;dashPattern=12 12;align=center;fontStyle=1;verticalAlign=middle;fontSize=12;" edge="1" parent="1" source="zYfPLpG0swG1dU-uLJUw-84" target="zYfPLpG0swG1dU-uLJUw-82">
          <mxGeometry relative="1" as="geometry">
            <Array as="points">
              <mxPoint x="500" y="650" />
              <mxPoint x="580" y="650" />
            </Array>
          </mxGeometry>
        </mxCell>
        <mxCell id="K5AAOl8hfwGV49l_5y5c-13" style="edgeStyle=orthogonalEdgeStyle;rounded=0;orthogonalLoop=1;jettySize=auto;html=1;dashed=1;dashPattern=8 8;align=center;fontStyle=1;verticalAlign=middle;fontSize=12;" edge="1" parent="1" source="zYfPLpG0swG1dU-uLJUw-101">
          <mxGeometry relative="1" as="geometry">
            <mxPoint x="910" y="880" as="targetPoint" />
            <Array as="points">
              <mxPoint x="910" y="829" />
            </Array>
          </mxGeometry>
        </mxCell>
        <mxCell id="zYfPLpG0swG1dU-uLJUw-17" value="&amp;nbsp;&lt;div style=&quot;font-size: 12px;&quot;&gt;&lt;br style=&quot;font-size: 12px;&quot;&gt;&lt;/div&gt;" style="swimlane;html=1;startSize=20;horizontal=0;labelBackgroundColor=none;fillColor=#f8cecc;strokeColor=#b85450;align=center;fontStyle=1;verticalAlign=middle;fontSize=12;" parent="1" vertex="1">
          <mxGeometry x="75" y="380" width="2125" height="370" as="geometry" />
        </mxCell>
        <mxCell id="zYfPLpG0swG1dU-uLJUw-85" value="" style="edgeStyle=orthogonalEdgeStyle;rounded=0;orthogonalLoop=1;jettySize=auto;html=1;align=center;fontStyle=1;verticalAlign=middle;fontSize=12;" parent="zYfPLpG0swG1dU-uLJUw-17" source="K5AAOl8hfwGV49l_5y5c-8" target="zYfPLpG0swG1dU-uLJUw-84" edge="1">
          <mxGeometry relative="1" as="geometry" />
        </mxCell>
        <mxCell id="zYfPLpG0swG1dU-uLJUw-18" value="" style="verticalLabelPosition=bottom;verticalAlign=middle;html=1;shape=mxgraph.flowchart.on-page_reference;fillColor=#008a00;strokeColor=#005700;labelBackgroundColor=none;fontColor=#ffffff;align=center;fontStyle=1;fontSize=12;" parent="zYfPLpG0swG1dU-uLJUw-17" vertex="1">
          <mxGeometry x="38.5" y="124.5" width="30" height="30" as="geometry" />
        </mxCell>
        <mxCell id="zYfPLpG0swG1dU-uLJUw-36" value="" style="ellipse;whiteSpace=wrap;html=1;fillColor=#d0635f;strokeColor=#C73500;fontColor=#000000;rounded=1;labelBackgroundColor=none;align=center;fontStyle=1;verticalAlign=middle;fontSize=12;" parent="zYfPLpG0swG1dU-uLJUw-17" vertex="1">
          <mxGeometry x="2075" y="192.5" width="34" height="35" as="geometry" />
        </mxCell>
        <mxCell id="zYfPLpG0swG1dU-uLJUw-84" value="Confirmação de pagamento no&lt;div style=&quot;font-size: 12px;&quot;&gt;Sistema&lt;/div&gt;" style="rounded=1;whiteSpace=wrap;html=1;verticalAlign=middle;fillColor=#008a00;strokeColor=#005700;fontColor=#ffffff;labelBackgroundColor=none;align=center;fontStyle=1;fontSize=12;" parent="zYfPLpG0swG1dU-uLJUw-17" vertex="1">
          <mxGeometry x="356" y="109.5" width="120" height="60" as="geometry" />
        </mxCell>
        <mxCell id="zYfPLpG0swG1dU-uLJUw-96" value="" style="edgeStyle=orthogonalEdgeStyle;rounded=0;orthogonalLoop=1;jettySize=auto;html=1;align=center;fontStyle=1;verticalAlign=middle;fontSize=12;" parent="zYfPLpG0swG1dU-uLJUw-17" source="zYfPLpG0swG1dU-uLJUw-94" target="zYfPLpG0swG1dU-uLJUw-95" edge="1">
          <mxGeometry relative="1" as="geometry" />
        </mxCell>
        <mxCell id="zYfPLpG0swG1dU-uLJUw-94" value="" style="ellipse;shape=doubleEllipse;whiteSpace=wrap;html=1;aspect=fixed;fillColor=#e3c800;fontColor=#000000;strokeColor=#B09500;align=center;fontStyle=1;verticalAlign=middle;fontSize=12;" parent="zYfPLpG0swG1dU-uLJUw-17" vertex="1">
          <mxGeometry x="675" y="121.5" width="36" height="36" as="geometry" />
        </mxCell>
        <mxCell id="zYfPLpG0swG1dU-uLJUw-93" value="" style="edgeStyle=orthogonalEdgeStyle;rounded=0;orthogonalLoop=1;jettySize=auto;html=1;align=center;fontStyle=1;verticalAlign=middle;fontSize=12;" parent="zYfPLpG0swG1dU-uLJUw-17" source="zYfPLpG0swG1dU-uLJUw-84" target="zYfPLpG0swG1dU-uLJUw-94" edge="1">
          <mxGeometry relative="1" as="geometry">
            <mxPoint x="556" y="139.5" as="targetPoint" />
          </mxGeometry>
        </mxCell>
        <mxCell id="K5AAOl8hfwGV49l_5y5c-34" value="" style="edgeStyle=orthogonalEdgeStyle;rounded=0;orthogonalLoop=1;jettySize=auto;html=1;align=center;fontStyle=1;verticalAlign=middle;fontSize=12;" edge="1" parent="zYfPLpG0swG1dU-uLJUw-17" source="zYfPLpG0swG1dU-uLJUw-95" target="K5AAOl8hfwGV49l_5y5c-33">
          <mxGeometry relative="1" as="geometry" />
        </mxCell>
        <mxCell id="zYfPLpG0swG1dU-uLJUw-95" value="serviço realizado&amp;nbsp;" style="rounded=1;whiteSpace=wrap;html=1;fillColor=#97D077;strokeColor=#82b366;align=center;fontStyle=1;verticalAlign=middle;fontSize=12;" parent="zYfPLpG0swG1dU-uLJUw-17" vertex="1">
          <mxGeometry x="975" y="109.5" width="120" height="60" as="geometry" />
        </mxCell>
        <mxCell id="K5AAOl8hfwGV49l_5y5c-9" value="" style="edgeStyle=orthogonalEdgeStyle;rounded=0;orthogonalLoop=1;jettySize=auto;html=1;align=center;fontStyle=1;verticalAlign=middle;fontSize=12;" edge="1" parent="zYfPLpG0swG1dU-uLJUw-17" source="zYfPLpG0swG1dU-uLJUw-18" target="K5AAOl8hfwGV49l_5y5c-8">
          <mxGeometry relative="1" as="geometry">
            <mxPoint x="143" y="574" as="sourcePoint" />
            <mxPoint x="430" y="574" as="targetPoint" />
          </mxGeometry>
        </mxCell>
        <mxCell id="K5AAOl8hfwGV49l_5y5c-8" value="" style="ellipse;shape=doubleEllipse;whiteSpace=wrap;html=1;aspect=fixed;fillColor=#e3c800;fontColor=#000000;strokeColor=#B09500;align=center;fontStyle=1;verticalAlign=middle;fontSize=12;" vertex="1" parent="zYfPLpG0swG1dU-uLJUw-17">
          <mxGeometry x="156" y="121.5" width="36" height="36" as="geometry" />
        </mxCell>
        <mxCell id="K5AAOl8hfwGV49l_5y5c-11" value="Aguardo de Pagamento do Cliente" style="text;html=1;align=center;verticalAlign=middle;whiteSpace=wrap;rounded=0;fontStyle=1;fontSize=12;" vertex="1" parent="zYfPLpG0swG1dU-uLJUw-17">
          <mxGeometry x="144" y="169.5" width="60" height="30" as="geometry" />
        </mxCell>
        <mxCell id="K5AAOl8hfwGV49l_5y5c-15" value="Aguardo na realização do serviço pela data informada no sistema para o envio da avaliação" style="text;html=1;align=center;verticalAlign=middle;whiteSpace=wrap;rounded=0;fontStyle=1;fontSize=12;" vertex="1" parent="zYfPLpG0swG1dU-uLJUw-17">
          <mxGeometry x="631" y="190" width="124" height="30" as="geometry" />
        </mxCell>
        <mxCell id="K5AAOl8hfwGV49l_5y5c-42" value="" style="edgeStyle=orthogonalEdgeStyle;rounded=0;orthogonalLoop=1;jettySize=auto;html=1;align=center;fontStyle=1;verticalAlign=middle;fontSize=12;" edge="1" parent="zYfPLpG0swG1dU-uLJUw-17" source="K5AAOl8hfwGV49l_5y5c-33">
          <mxGeometry relative="1" as="geometry">
            <mxPoint x="1534.0267379679144" y="139.52941176470586" as="targetPoint" />
          </mxGeometry>
        </mxCell>
        <mxCell id="K5AAOl8hfwGV49l_5y5c-33" value="&#xa;&lt;span style=&quot;color: rgb(0, 0, 0); font-family: Helvetica; font-size: 12px; font-style: normal; font-variant-ligatures: normal; font-variant-caps: normal; letter-spacing: normal; orphans: 2; text-indent: 0px; text-transform: none; widows: 2; word-spacing: 0px; -webkit-text-stroke-width: 0px; white-space: normal; background-color: rgb(251, 251, 251); text-decoration-thickness: initial; text-decoration-style: initial; text-decoration-color: initial; float: none; display: inline !important;&quot;&gt;Período de avaliação&lt;/span&gt;&#xa;&#xa;" style="whiteSpace=wrap;html=1;fillColor=#97D077;strokeColor=#82b366;rounded=1;align=center;fontStyle=1;verticalAlign=middle;fontSize=12;" vertex="1" parent="zYfPLpG0swG1dU-uLJUw-17">
          <mxGeometry x="1285" y="109.5" width="120" height="60" as="geometry" />
        </mxCell>
        <mxCell id="K5AAOl8hfwGV49l_5y5c-38" value="Avaliação Disponível&amp;nbsp;" style="text;html=1;align=center;verticalAlign=middle;whiteSpace=wrap;rounded=0;fontStyle=1;fontSize=12;" vertex="1" parent="zYfPLpG0swG1dU-uLJUw-17">
          <mxGeometry x="1265" y="30" width="60" height="30" as="geometry" />
        </mxCell>
        <mxCell id="K5AAOl8hfwGV49l_5y5c-52" value="" style="edgeStyle=orthogonalEdgeStyle;rounded=0;orthogonalLoop=1;jettySize=auto;html=1;align=center;fontStyle=1;verticalAlign=middle;fontSize=12;" edge="1" parent="zYfPLpG0swG1dU-uLJUw-17" source="K5AAOl8hfwGV49l_5y5c-43" target="K5AAOl8hfwGV49l_5y5c-51">
          <mxGeometry relative="1" as="geometry" />
        </mxCell>
        <mxCell id="K5AAOl8hfwGV49l_5y5c-43" value="" style="ellipse;shape=doubleEllipse;whiteSpace=wrap;html=1;aspect=fixed;fillColor=#e3c800;fontColor=#000000;strokeColor=#B09500;align=center;fontStyle=1;verticalAlign=middle;fontSize=12;" vertex="1" parent="zYfPLpG0swG1dU-uLJUw-17">
          <mxGeometry x="1535" y="121.5" width="36" height="36" as="geometry" />
        </mxCell>
        <mxCell id="K5AAOl8hfwGV49l_5y5c-44" value="&amp;nbsp;até 5 dias úteis para fazer&amp;nbsp;&lt;div style=&quot;font-size: 12px;&quot;&gt;a avaliação&amp;nbsp;&lt;/div&gt;" style="text;html=1;align=center;verticalAlign=middle;whiteSpace=wrap;rounded=0;fontStyle=1;fontSize=12;" vertex="1" parent="zYfPLpG0swG1dU-uLJUw-17">
          <mxGeometry x="1491" y="180" width="124" height="30" as="geometry" />
        </mxCell>
        <mxCell id="K5AAOl8hfwGV49l_5y5c-55" value="" style="edgeStyle=orthogonalEdgeStyle;rounded=0;orthogonalLoop=1;jettySize=auto;html=1;entryX=0.5;entryY=1;entryDx=0;entryDy=0;align=center;fontStyle=1;verticalAlign=middle;fontSize=12;" edge="1" parent="zYfPLpG0swG1dU-uLJUw-17" source="K5AAOl8hfwGV49l_5y5c-51" target="K5AAOl8hfwGV49l_5y5c-54">
          <mxGeometry relative="1" as="geometry" />
        </mxCell>
        <mxCell id="K5AAOl8hfwGV49l_5y5c-51" value="" style="rhombus;whiteSpace=wrap;html=1;fillColor=#e3c800;strokeColor=#B09500;fontColor=#000000;align=center;fontStyle=1;verticalAlign=middle;fontSize=12;" vertex="1" parent="zYfPLpG0swG1dU-uLJUw-17">
          <mxGeometry x="1713" y="124.5" width="55" height="59.5" as="geometry" />
        </mxCell>
        <mxCell id="K5AAOl8hfwGV49l_5y5c-53" value="&amp;nbsp;Tipo de&amp;nbsp;&lt;div style=&quot;font-size: 12px;&quot;&gt;avaliação&lt;/div&gt;" style="text;html=1;align=center;verticalAlign=middle;whiteSpace=wrap;rounded=0;fontStyle=1;fontSize=12;" vertex="1" parent="zYfPLpG0swG1dU-uLJUw-17">
          <mxGeometry x="1676.5" y="184" width="124" height="30" as="geometry" />
        </mxCell>
        <mxCell id="K5AAOl8hfwGV49l_5y5c-96" style="edgeStyle=orthogonalEdgeStyle;rounded=0;orthogonalLoop=1;jettySize=auto;html=1;entryX=-0.135;entryY=0.46;entryDx=0;entryDy=0;entryPerimeter=0;align=center;fontStyle=1;verticalAlign=middle;fontSize=12;" edge="1" parent="zYfPLpG0swG1dU-uLJUw-17" source="K5AAOl8hfwGV49l_5y5c-54" target="K5AAOl8hfwGV49l_5y5c-97">
          <mxGeometry relative="1" as="geometry">
            <mxPoint x="2025" y="45" as="targetPoint" />
          </mxGeometry>
        </mxCell>
        <mxCell id="K5AAOl8hfwGV49l_5y5c-54" value="&lt;div style=&quot;font-size: 12px;&quot;&gt;Criação de uma&lt;/div&gt;Reclamação" style="whiteSpace=wrap;html=1;fillColor=#e3c800;strokeColor=#B09500;fontColor=#000000;align=center;fontStyle=1;verticalAlign=middle;fontSize=12;" vertex="1" parent="zYfPLpG0swG1dU-uLJUw-17">
          <mxGeometry x="1680.5" y="15" width="120" height="60" as="geometry" />
        </mxCell>
        <mxCell id="K5AAOl8hfwGV49l_5y5c-56" value="&amp;nbsp;Negativa" style="text;html=1;align=center;verticalAlign=middle;whiteSpace=wrap;rounded=0;fontStyle=1;fontSize=12;" vertex="1" parent="zYfPLpG0swG1dU-uLJUw-17">
          <mxGeometry x="1725" y="89.5" width="107" height="20" as="geometry" />
        </mxCell>
        <mxCell id="K5AAOl8hfwGV49l_5y5c-95" style="edgeStyle=orthogonalEdgeStyle;rounded=0;orthogonalLoop=1;jettySize=auto;html=1;entryX=0;entryY=0.5;entryDx=0;entryDy=0;align=center;fontStyle=1;verticalAlign=middle;fontSize=12;" edge="1" parent="zYfPLpG0swG1dU-uLJUw-17" source="K5AAOl8hfwGV49l_5y5c-59" target="zYfPLpG0swG1dU-uLJUw-36">
          <mxGeometry relative="1" as="geometry" />
        </mxCell>
        <mxCell id="K5AAOl8hfwGV49l_5y5c-59" value="Transferência do&amp;nbsp;&lt;div style=&quot;font-size: 12px;&quot;&gt;pagamento&lt;/div&gt;" style="whiteSpace=wrap;html=1;fillColor=#e3c800;strokeColor=#B09500;fontColor=#000000;align=center;fontStyle=1;verticalAlign=middle;fontSize=12;" vertex="1" parent="zYfPLpG0swG1dU-uLJUw-17">
          <mxGeometry x="1885" y="180" width="120" height="60" as="geometry" />
        </mxCell>
        <mxCell id="K5AAOl8hfwGV49l_5y5c-62" style="edgeStyle=orthogonalEdgeStyle;rounded=0;orthogonalLoop=1;jettySize=auto;html=1;entryX=0.347;entryY=0.997;entryDx=0;entryDy=0;entryPerimeter=0;align=center;fontStyle=1;verticalAlign=middle;fontSize=12;" edge="1" parent="zYfPLpG0swG1dU-uLJUw-17" target="K5AAOl8hfwGV49l_5y5c-59">
          <mxGeometry relative="1" as="geometry">
            <mxPoint x="1835" y="240" as="targetPoint" />
            <mxPoint x="1768" y="154.5" as="sourcePoint" />
            <Array as="points">
              <mxPoint x="1805" y="155" />
              <mxPoint x="1805" y="290" />
              <mxPoint x="1927" y="290" />
            </Array>
          </mxGeometry>
        </mxCell>
        <mxCell id="K5AAOl8hfwGV49l_5y5c-91" value="Positiva" style="text;html=1;align=center;verticalAlign=middle;whiteSpace=wrap;rounded=0;fontStyle=1;fontSize=12;" vertex="1" parent="zYfPLpG0swG1dU-uLJUw-17">
          <mxGeometry x="1835" y="250" width="70" height="18.5" as="geometry" />
        </mxCell>
        <mxCell id="K5AAOl8hfwGV49l_5y5c-92" value="Não Houve&amp;nbsp;&lt;div style=&quot;font-size: 12px;&quot;&gt;avaliação&amp;nbsp;&lt;/div&gt;" style="text;html=1;align=center;verticalAlign=middle;whiteSpace=wrap;rounded=0;fontStyle=1;fontSize=12;" vertex="1" parent="zYfPLpG0swG1dU-uLJUw-17">
          <mxGeometry x="1835" y="300" width="70" height="18.5" as="geometry" />
        </mxCell>
        <mxCell id="K5AAOl8hfwGV49l_5y5c-97" value="" style="ellipse;whiteSpace=wrap;html=1;fillColor=#d0635f;strokeColor=#C73500;fontColor=#000000;rounded=1;labelBackgroundColor=none;align=center;fontStyle=1;verticalAlign=middle;fontSize=12;" vertex="1" parent="zYfPLpG0swG1dU-uLJUw-17">
          <mxGeometry x="2065" y="27.5" width="34" height="35" as="geometry" />
        </mxCell>
        <mxCell id="K5AAOl8hfwGV49l_5y5c-37" style="edgeStyle=orthogonalEdgeStyle;rounded=0;orthogonalLoop=1;jettySize=auto;html=1;dashed=1;align=center;fontStyle=1;verticalAlign=middle;fontSize=12;" edge="1" parent="1" source="K5AAOl8hfwGV49l_5y5c-33" target="K5AAOl8hfwGV49l_5y5c-35">
          <mxGeometry relative="1" as="geometry">
            <Array as="points">
              <mxPoint x="1410" y="440" />
              <mxPoint x="1410" y="440" />
            </Array>
          </mxGeometry>
        </mxCell>
      </root>
    </mxGraphModel>
  </diagram>
</mxfile>
